<?xml version="1.0" encoding="utf-8"?>
<!-- Generator: Adobe Illustrator 18.1.0, SVG Export Plug-In . SVG Version: 6.00 Build 0)  -->
<svg version="1.1" xmlns="http://www.w3.org/2000/svg" xmlns:xlink="http://www.w3.org/1999/xlink" x="0px" y="0px"
	 viewBox="0 0 203.7 205.8" enable-background="new 0 0 203.7 205.8" xml:space="preserve">
<g id="Layer_2">
	<circle fill="#464647" cx="103.7" cy="105.8" r="100"/>
</g>
<g id="Layer_1">
	<g id="GitHub_icon">
		<circle fill="#FFFFFF" cx="100" cy="102.8" r="100"/>
		<path fill="#4191CB" d="M100,0C44.8,0,0,45.4,0,101.5c0,47.7,32.4,87.7,76.1,98.5c0-12.5-0.1-36.4-0.1-37.3
			c-0.2-0.1-19,11-28.5-8.5c-1.2-2.4-3.5-10.5-9.3-15c-0.2-0.2-4.5-2.4-4.9-4.6c-0.1-0.3,0.3-1,0.7-1.1c0.4-0.1,7.5-3.1,15.4,7
			C51.8,144,57.1,157,76,149c0.5-2,0.9-5.3,5-9c-28-3.4-38.2-13.1-42.2-37.4C36.3,86,41,72.3,48.2,65.5C47.1,64,43.5,52,49,39.2
			c6-1.2,17.1,3.2,26.8,10.3c13.7-5,39.3-3.7,48.5,0c4.3-3.7,20-12.2,26.6-10.2c2,5.1,4.8,17.4,0.9,26.3c8.7,9.1,11.1,20.8,9.6,35.3
			c-1.9,21.9-12.8,36.6-42.5,39.2c5,3.5,9.4,8.4,9.4,16.6c0,8.8,0,30.1,0,42.2c41.4-12.4,71.6-51.3,71.6-97.3
			C200,45.5,155.2,0,100,0z"/>
	</g>
</g>
</svg>
