<?xml version="1.0" encoding="utf-8"?>
<!-- Generator: Adobe Illustrator 18.1.0, SVG Export Plug-In . SVG Version: 6.00 Build 0)  -->
<svg version="1.1" id="Arrow_1_" xmlns="http://www.w3.org/2000/svg" xmlns:xlink="http://www.w3.org/1999/xlink" x="0px" y="0px"
	 viewBox="-55 147 510 510" enable-background="new -55 147 510 510" xml:space="preserve">
<g>
	<g id="Shape_163_copy_5_1_">
		<image overflow="visible" width="572" height="572" xlink:href="5C18385A.png"  transform="matrix(1 0 0 1 -81 121)">
		</image>
	</g>
	<g id="Shape_163_copy_5_5_">
		<circle fill="#D0422B" cx="195" cy="397" r="250"/>
	</g>
	<path display="none" fill="#A32E21" d="M287.5,287.6L188,372.7l11.6-20.3l-21.7-45.9l-0.6-12.2l-35.2-3.1l-35.2,13
		c0,0-109.2,103.4-155.5,148.7C-32,525.6,16.2,586.1,80.9,619.4c64.1-64.2,125-126.1,125-126.1l7.3-25.4L342.7,344l-46.3-11
		L287.5,287.6z"/>
	<g id="g_3_">
		<path fill="#F4F4F4" d="M228.9,284.6h-63.8c-8.5,0-17.5,0.9-27.2,2.8c-9.8,2.2-19.2,6.8-28.3,13.9c-13.2,12.1-19.8,25.6-19.8,40.5
			c0,12.3,4.7,23.1,14,32.4c8.9,9.9,21.9,15,38.9,15.2c3.2,0,6.6-0.2,10.3-0.6c-0.6,1.6-1.3,3.3-2,5.2c-0.8,1.8-1.2,4.1-1.2,6.8
			c0,4.5,1.1,8.4,3.2,11.6c1.8,3.3,3.9,6.4,6.2,9.3c-7.5,0.2-16.8,1.1-28.1,2.7c-11.4,1.9-22.3,5.6-32.7,11.2
			c-9.2,5.2-15.6,11.2-19.1,18.1c-3.6,6.9-5.4,13.1-5.4,18.7c0,11.5,5.6,21.3,16.7,29.6c11,8.8,27.7,13.3,50.1,13.5
			c26.7-0.4,47.1-6.5,61.3-18.2c13.7-11.3,20.5-24.4,20.5-39c-0.2-10.3-2.7-18.7-7.4-25.1c-5.1-6.3-10.9-12.1-17.6-17.3l-10.8-8.4
			c-1.5-1.5-3.2-3.2-4.8-5.2c-1.9-2.1-2.9-4.7-2.9-7.8c0-3.2,0.9-6.1,2.8-8.6c1.6-2.4,3.3-4.5,5.2-6.4c3.3-2.8,6.4-5.5,9.3-8.1
			c2.6-2.7,5.1-5.6,7.5-8.7c4.8-6.5,7.3-15.2,7.5-26c0-5.9-0.7-11.1-2.1-15.5c-1.7-4.4-3.7-8.3-5.9-11.5c-2.3-3.4-4.7-6.4-7.1-8.7
			c-2.5-2.3-4.8-4-6.8-5.2H209L228.9,284.6z M193.9,450.1c5.3,5.7,7.9,12.4,7.9,20.1c0,9.5-3.9,17.2-11.6,23.2
			c-7.9,6.1-19.4,9.3-34.4,9.5c-16.8-0.2-30-3.7-39.6-10.6C106,485.4,101,476.6,101,466c0-5.4,1.2-10.1,3.5-13.9
			c2-3.7,4.5-6.7,7.5-9.2c3-2.4,6-4.2,9-5.5c2.9-1.2,5.2-2.1,6.9-2.7c6.9-2,13.7-3.4,20.3-4.3c6.7-0.6,10.9-0.8,12.5-0.6
			c2.7,0,5.1,0.1,7.2,0.3C179.5,438,188.3,444.7,193.9,450.1z M183.6,360.8c-0.7,4.1-2.4,8-5,11.9c-5.6,5.4-12.6,8.3-21,8.6
			c-6.7,0-12.6-1.9-17.8-5.8c-5.2-3.8-9.4-8.5-12.7-14.1c-6.8-11.9-10.2-23.3-10.2-34.2c-0.2-8.3,2.1-15.8,6.9-22.5
			c5.7-6.4,12.9-9.7,21.6-9.9c6.5,0.2,12.3,2,17.3,5.5c4.9,3.7,8.9,8.4,11.9,14.2c6.4,12.2,9.7,24.2,9.7,36.2
			C184.3,353.3,184.1,356.7,183.6,360.8z M300.7,330.4v-42.9h-13.2v42.9h-42.3V344h42.3v43.6h13.2V344h41.9v-13.6H300.7z"/>
	</g>
</g>
</svg>
