<?xml version="1.0" encoding="utf-8"?>
<!-- Generator: Adobe Illustrator 18.1.0, SVG Export Plug-In . SVG Version: 6.00 Build 0)  -->
<svg version="1.1" id="Arrow_1_" xmlns="http://www.w3.org/2000/svg" xmlns:xlink="http://www.w3.org/1999/xlink" x="0px" y="0px"
	 viewBox="0 151 612 619.5" enable-background="new 0 151 612 619.5" xml:space="preserve">
<g>
	<g id="Shape_163_copy_5_1_" opacity="0.73">
		<circle fill="#3A3A3A" cx="312" cy="470.5" r="300"/>
	</g>
	<g id="Shape_163_copy_5_5_">
		<circle fill="#D0422B" cx="300" cy="455.5" r="300"/>
	</g>
	<path display="none" fill="#A32E21" d="M411,324.2L291.6,426.3l13.9-24.4l-26-55.1l-0.7-14.6l-42.2-3.7l-42.2,15.6
		c0,0-131,124.1-186.6,178.4c19.9,87.2,77.8,159.8,155.4,199.8c76.9-77,150-151.3,150-151.3l8.8-30.5l155.4-148.7l-55.6-13.2
		L411,324.2z"/>
	<g id="g_3_">
		<path fill="#F4F4F4" d="M340.7,320.6h-76.6c-10.2,0-21,1.1-32.6,3.4c-11.8,2.6-23,8.2-34,16.7c-15.8,14.5-23.8,30.7-23.8,48.6
			c0,14.8,5.6,27.7,16.8,38.9c10.7,11.9,26.3,18,46.7,18.2c3.8,0,7.9-0.2,12.4-0.7c-0.7,1.9-1.6,4-2.4,6.2c-1,2.2-1.4,4.9-1.4,8.2
			c0,5.4,1.3,10.1,3.8,13.9c2.2,4,4.7,7.7,7.4,11.2c-9,0.2-20.2,1.3-33.7,3.2c-13.7,2.3-26.8,6.7-39.2,13.4
			c-11,6.2-18.7,13.4-22.9,21.7c-4.3,8.3-6.5,15.7-6.5,22.4c0,13.8,6.7,25.6,20,35.5c13.2,10.6,33.2,16,60.1,16.2
			c32-0.5,56.5-7.8,73.6-21.8c16.4-13.6,24.6-29.3,24.6-46.8c-0.2-12.4-3.2-22.4-8.9-30.1c-6.1-7.6-13.1-14.5-21.1-20.8l-13-10.1
			c-1.8-1.8-3.8-3.8-5.8-6.2c-2.3-2.5-3.5-5.6-3.5-9.4c0-3.8,1.1-7.3,3.4-10.3c1.9-2.9,4-5.4,6.2-7.7c4-3.4,7.7-6.6,11.2-9.7
			c3.1-3.2,6.1-6.7,9-10.4c5.8-7.8,8.8-18.2,9-31.2c0-7.1-0.8-13.3-2.5-18.6c-2-5.3-4.4-10-7.1-13.8c-2.8-4.1-5.6-7.7-8.5-10.4
			c-3-2.8-5.8-4.8-8.2-6.2h23.5L340.7,320.6z M298.7,519.2c6.4,6.8,9.5,14.9,9.5,24.1c0,11.4-4.7,20.6-13.9,27.8
			c-9.5,7.3-23.3,11.2-41.3,11.4c-20.2-0.2-36-4.4-47.5-12.7c-12.2-8.3-18.2-18.8-18.2-31.6c0-6.5,1.4-12.1,4.2-16.7
			c2.4-4.4,5.4-8,9-11c3.6-2.9,7.2-5,10.8-6.6c3.5-1.4,6.2-2.5,8.3-3.2c8.3-2.4,16.4-4.1,24.4-5.2c8-0.7,13.1-1,15-0.7
			c3.2,0,6.1,0.1,8.6,0.4C281.4,504.7,292,512.7,298.7,519.2z M286.3,412c-0.8,4.9-2.9,9.6-6,14.3c-6.7,6.5-15.1,10-25.2,10.3
			c-8,0-15.1-2.3-21.4-7c-6.2-4.6-11.3-10.2-15.2-16.9c-8.2-14.3-12.2-28-12.2-41c-0.2-10,2.5-19,8.3-27
			c6.8-7.7,15.5-11.6,25.9-11.9c7.8,0.2,14.8,2.4,20.8,6.6c5.9,4.4,10.7,10.1,14.3,17c7.7,14.6,11.6,29,11.6,43.4
			C287.2,403,286.9,407.1,286.3,412z M426.8,375.5v-51.5H411v51.5h-50.8v16.3H411v52.3h15.8v-52.3h50.3v-16.3H426.8z"/>
	</g>
</g>
</svg>
