<?xml version="1.0" encoding="utf-8"?>
<!-- Generator: Adobe Illustrator 18.1.0, SVG Export Plug-In . SVG Version: 6.00 Build 0)  -->
<svg version="1.1" id="Arrow_1_" xmlns="http://www.w3.org/2000/svg" xmlns:xlink="http://www.w3.org/1999/xlink" x="0px" y="0px"
	 viewBox="-55 233.3 500 327.3" enable-background="new -55 233.3 500 327.3" xml:space="preserve">
<g>
	<path fill="#F4B459" d="M-53.4,523.8c-0.7-3.2-1.1-6.5-1.1-9.9C-54.5,517.3-54.1,520.6-53.4,523.8z"/>
	<path fill="#F4B459" d="M-54.5,280c0-3.4,0.4-6.7,1.1-9.9C-54.1,273.3-54.5,276.6-54.5,280z"/>
	<path fill="#F4B459" d="M-50.3,533.1c-1.1-2.5-2-5.1-2.7-7.8C-52.3,528-51.4,530.7-50.3,533.1z"/>
	<path fill="#F4B459" d="M-52.9,268.4c0.7-2.7,1.5-5.3,2.7-7.7C-51.3,263.1-52.2,265.7-52.9,268.4z"/>
	<path fill="#F4B459" d="M435.1,541.8c1.2-1.6,2.2-3.3,3.2-5c-0.5,0.9-1.2,1.8-1.8,2.7C436,540.2,435.7,541.1,435.1,541.8z"/>
	<path fill="#F4B459" d="M437,254.7c-0.5-0.8-1.1-1.6-1.7-2.4c0.1,0.1,0.2,0.3,0.3,0.5C436,253.5,436.5,254.1,437,254.7z"/>
	<path fill="#F4B459" d="M442.9,268.6c-0.7-2.6-1.5-5.2-2.6-7.6l0,0C441.4,263.4,442.2,266,442.9,268.6z"/>
	<path fill="#F4B459" d="M442.9,525.5c-0.7,2.7-1.5,5.3-2.7,7.7C441.4,530.8,442.2,528.2,442.9,525.5z"/>
	<path fill="#F4B459" d="M438.2,536.7l0.1,0.1c0.5-0.9,1-1.8,1.5-2.7C439.3,535,438.7,535.8,438.2,536.7z"/>
	<path fill="#F4B459" d="M444.5,514c0,3.4-0.4,6.7-1.1,9.9C444.1,520.7,444.5,517.4,444.5,514z"/>
	<path fill="#F4B459" d="M435.2,252.3c-0.3-0.3-0.6-0.7-0.8-1c0.1,0.2,0.3,0.4,0.4,0.6C434.9,252.1,435.1,252.2,435.2,252.3z"/>
	<path fill="#F4B459" d="M443.4,270.2c0.7,3.2,1.1,6.5,1.1,9.9C444.5,276.7,444.1,273.4,443.4,270.2z"/>
	<path fill="#F4B459" d="M-41.4,247.7c0.9-1,1.9-1.8,2.9-2.7C-39.5,246-40.5,246.8-41.4,247.7z"/>
	<path fill="#F4B459" d="M-46.4,253.7c0.1-0.1,0.2-0.2,0.3-0.3c-1.4,2-2.5,4.2-3.6,6.4c1-2.1,2.3-4,3.6-5.8L-46.4,253.7z"/>
	<path fill="#F4B459" d="M429,548.4c-0.2,0.2-0.3,0.3-0.5,0.5l-0.1-0.1c-3,2.7-6.3,5-10,6.9l-173-137.1l-10.1,8.2
		c-18.3,18.8-47.8,18.8-66.1,0l-10.9-8.8L-19.8,558.9c-7.2-1.9-13.6-5.5-18.9-10.3l0,0c-0.2-0.1-0.3-0.3-0.4-0.5
		c-1.7-1.6-3.3-3.3-4.8-5.1l0.1-0.1c-2.3-2.9-4.4-5.9-6-9.2c7.5,15.9,23.5,26.9,42.2,26.9h405.4c15.4,0,28.9-7.5,37.4-18.9
		c-0.1,0.2-0.3,0.3-0.5,0.5C432.9,544.5,431,546.5,429,548.4z"/>
	<path fill="#F4B459" d="M422.4,240.5c-7.2-4.5-15.6-7.2-24.7-7.2H-7.7c-5.8,0-11.2,1.2-16.3,3.1l226.2,180.3L422.4,240.5z"/>
	<path fill="#F4B459" d="M-29.4,238.8c1.7-0.9,3.4-1.7,5.2-2.4C-25.9,237.1-27.7,237.9-29.4,238.8z"/>
	<path fill="#F4B459" d="M422.5,240.5c1.4,0.9,2.7,1.9,4.1,3C425.3,242.4,423.9,241.4,422.5,240.5z"/>
	<path fill="#F4B459" d="M-35.6,242.7c1.3-1,2.7-1.9,4.2-2.8C-32.9,240.8-34.3,241.7-35.6,242.7z"/>
	<path fill="#F4B459" d="M428.9,245.4c1.2,1,2.3,2.1,3.3,3.2C431.1,247.5,430,246.4,428.9,245.4z"/>
	<path fill="#E8AB54" d="M-38.4,245L-38.4,245L-38.4,245z"/>
	<path fill="#E8AB54" d="M440.2,260.6c0,0,0,0.1,0.1,0.1C440.2,260.6,440.2,260.6,440.2,260.6z"/>
	<path fill="#E8AB54" d="M135.8,399.8L-46.1,253.9c-1.3,1.9-2.5,3.8-3.6,5.8c-0.2,0.3-0.3,0.6-0.5,0.9c-1.1,2.4-2,5.1-2.7,7.7
		c-0.2,0.6-0.4,1.1-0.5,1.7c-0.7,3.2-1.1,6.5-1.1,9.9V514c0,3.4,0.4,6.7,1.1,9.9c0.1,0.5,0.3,1,0.5,1.5c0.7,2.7,1.5,5.3,2.7,7.8
		c0.1,0.2,0.2,0.4,0.4,0.7c1.6,3.3,3.7,6.4,6,9.2L135.8,399.8z"/>
	<path fill="#E8AB54" d="M-38.8,548.6c-0.2-0.1-0.3-0.3-0.5-0.4C-39.1,548.3-39,548.5-38.8,548.6L-38.8,548.6z"/>
	<path fill="#E8AB54" d="M429,548.4c-0.2,0.2-0.4,0.3-0.5,0.4l0.1,0.1C428.7,548.7,428.8,548.5,429,548.4z"/>
	<path fill="#E8AB54" d="M434.6,542.3c0.1-0.2,0.3-0.3,0.5-0.5l0,0c0.5-0.7,0.9-1.5,1.4-2.3C435.9,540.4,435.3,541.4,434.6,542.3z"
		/>
	<path fill="#E8AB54" d="M267.9,400.4l170.3,136.3c0.5-0.9,1.1-1.7,1.6-2.6c0.1-0.3,0.3-0.5,0.4-0.8c1.1-2.5,2-5.1,2.7-7.7
		c0.1-0.6,0.4-1.1,0.5-1.7c0.7-3.2,1.1-6.5,1.1-9.9V280c0-3.4-0.4-6.7-1.1-9.9c-0.1-0.6-0.4-1.1-0.5-1.6c-0.7-2.6-1.5-5.2-2.6-7.6
		L267.9,400.4z"/>
	<path fill="#E8AB54" d="M435.5,252.8c-0.1-0.1-0.2-0.3-0.3-0.5l0,0c-0.1-0.2-0.3-0.3-0.4-0.4C435.1,252.2,435.3,252.5,435.5,252.8z
		"/>
	<path fill="#FADAAC" d="M267.9,400.4L440.3,261l0,0l0,0c0-0.1-0.1-0.2-0.1-0.3c0,0,0-0.1-0.1-0.1c-0.9-2-2-4-3.2-5.8
		c-0.4-0.7-1-1.3-1.5-1.9c-0.2-0.3-0.5-0.6-0.7-0.9c-0.1-0.2-0.3-0.4-0.4-0.6c-0.7-0.9-1.4-1.9-2.2-2.7c-1-1.1-2.1-2.2-3.3-3.2
		c-0.7-0.7-1.5-1.3-2.3-1.9c-1.3-1-2.6-2.1-4.1-3c0,0,0,0-0.1,0l0,0L202.2,416.7L-24.1,236.4l0,0c0,0,0,0-0.1,0
		c-1.8,0.7-3.5,1.5-5.2,2.4c-0.7,0.4-1.4,0.7-2.1,1.1c-1.4,0.8-2.8,1.8-4.2,2.8c-1,0.7-1.9,1.5-2.8,2.3l0,0l-0.1,0.1
		c-1,0.9-2,1.7-2.9,2.7c-1.7,1.8-3.3,3.6-4.7,5.7c-0.1,0.1-0.2,0.2-0.3,0.3l0.2,0.2l181.9,145.9L-43.9,543l-0.1,0.1
		c1.5,1.8,3.1,3.5,4.8,5.1c0.2,0.1,0.3,0.3,0.5,0.4c5.3,4.8,11.8,8.4,18.9,10.3L158.3,418l10.9,8.8c18.2,18.8,47.8,18.8,66.1,0
		l10.1-8.2l173.1,137.1c3.7-1.8,7-4.2,10-6.9c0.2-0.2,0.4-0.3,0.5-0.4c2-1.9,4-3.9,5.6-6.1c0.7-0.9,1.2-1.9,1.9-2.8
		c0.6-0.9,1.3-1.8,1.8-2.7l0,0l0,0l-0.1-0.1L267.9,400.4z"/>
</g>
</svg>
