<?xml version="1.0" encoding="utf-8"?>
<!-- Generator: Adobe Illustrator 18.1.0, SVG Export Plug-In . SVG Version: 6.00 Build 0)  -->
<svg version="1.1" id="Arrow_1_" xmlns="http://www.w3.org/2000/svg" xmlns:xlink="http://www.w3.org/1999/xlink" x="0px" y="0px"
	 viewBox="-55 147 500 500" enable-background="new -55 147 500 500" xml:space="preserve">
<g>
	<g id="Shape_163_copy_5_3_">
		<circle fill="#00ACF0" cx="195" cy="397" r="250"/>
	</g>
	<path display="none" fill="#007AAA" d="M257.6,438.8l-38.9-7.6l17.9-40.5l15.9-91.1h-30l-99.9,64.9l-44-64.4
		c0,0-83.5,87.7-130.8,133.9c13.3,89.8,74.4,164,156.5,196c67-67.2,131.2-136.5,165.9-171.2L257.6,438.8z"/>
	<g id="Shape_164_copy_2_">
		<path fill="#F4F4F4" d="M306.4,324.4c19.9-13,21.6-30.8,21.6-30.8c-6.4,8.9-35.1,13.6-35.1,13.6c-24.5-29-61.3-13.6-61.3-13.6
			c-43.2,15.4-36.8,65.6-36.8,65.6c-75.4-1.2-116.3-59.1-116.3-59.1C56,347.4,94,376,94,376c-8.5,0.9-23.7-5.9-23.7-5.9
			c-0.6,43.4,44.4,58.8,44.4,58.8c-4.1,0.6-23.4,0.6-23.4,0.6c9.9,35.5,52,39,52,39c-40.9,30.7-81.8,25.4-81.8,25.4
			c40.3,30.7,80.2,27.5,107.5,23.6C236,508,271.8,459,271.8,459c47.3-60.9,31.5-112.3,39.1-115.2c0.1-0.1,0.3-0.1,0.4-0.2
			c7.8-3.6,25.9-26.4,25.9-26.4C324.5,324.4,306.4,324.4,306.4,324.4z"/>
	</g>
</g>
</svg>
