<?xml version="1.0" encoding="utf-8"?>
<!-- Generator: Adobe Illustrator 18.1.0, SVG Export Plug-In . SVG Version: 6.00 Build 0)  -->
<svg version="1.1" id="Arrow_1_" xmlns="http://www.w3.org/2000/svg" xmlns:xlink="http://www.w3.org/1999/xlink" x="0px" y="0px"
	 viewBox="0 168 622 629.9" enable-background="new 0 168 622 629.9" xml:space="preserve">
<g>
	<g id="Shape_163_copy_5_1_" opacity="0.73">
		<circle fill="#3A3A3A" cx="317" cy="492" r="306"/>
	</g>
	<g id="Shape_163_copy_5_3_">
		<circle fill="#00ACF0" cx="306" cy="479" r="306"/>
	</g>
	<path display="none" fill="#007AAA" d="M382.6,530.2l-47.6-9.3l21.9-49.6l19.5-111.5h-36.7l-122.3,79.4l-53.9-78.8
		c0,0-102.2,107.3-160.1,163.9C19.7,634.2,94.5,725,195,764.2c82-82.3,160.6-167.1,203.1-209.5L382.6,530.2z"/>
	<g id="Shape_164_copy_2_">
		<path fill="#F4F4F4" d="M442.4,390.1c24.4-15.9,26.4-37.7,26.4-37.7c-7.8,10.9-43,16.6-43,16.6c-30-35.5-75-16.6-75-16.6
			c-52.9,18.8-45,80.3-45,80.3c-92.3-1.5-142.4-72.3-142.4-72.3c-27.5,57.9,19,92.9,19,92.9c-10.4,1.1-29-7.2-29-7.2
			c-0.7,53.1,54.3,72,54.3,72c-5,0.7-28.6,0.7-28.6,0.7c12.1,43.5,63.6,47.7,63.6,47.7c-50.1,37.6-100.1,31.1-100.1,31.1
			c49.3,37.6,98.2,33.7,131.6,28.9c82-11.6,125.8-71.6,125.8-71.6c57.9-74.5,38.6-137.5,47.9-141c0.1-0.1,0.4-0.1,0.5-0.2
			c9.5-4.4,31.7-32.3,31.7-32.3C464.5,390.1,442.4,390.1,442.4,390.1z"/>
	</g>
</g>
</svg>
