<?xml version="1.0" encoding="utf-8"?>
<!-- Generator: Adobe Illustrator 18.0.0, SVG Export Plug-In . SVG Version: 6.00 Build 0)  -->
<!DOCTYPE svg PUBLIC "-//W3C//DTD SVG 1.1//EN" "http://www.w3.org/Graphics/SVG/1.1/DTD/svg11.dtd">
<svg version="1.1" id="Arrow_1_" xmlns="http://www.w3.org/2000/svg" xmlns:xlink="http://www.w3.org/1999/xlink" x="0px" y="0px"
	 width="500px" height="500px" viewBox="0 0 500 500" enable-background="new 0 0 500 500" xml:space="preserve">
<g>
	<g id="Shape_163_copy_2_2_">
		<circle fill="#EB5350" cx="250" cy="250" r="250"/>
	</g>
	<g>
		<path fill="#AA3030" d="M372.2,278.5l-81.9-31.7l42.5-25.6l-15.4-76.5l-16.1,12.8l-13.2-12.8l-16.4,19.2l-25.5-15.2l-14.8,5.7
			c0,0-12.2,11.2-30,27.6l-15.1-42.2l-17.8-22.6c0,0-108.8,108.1-166.5,164.5C17.6,404.3,121.8,499.2,248.4,500
			c45.1-44.9,93-92.7,129.7-129.3c17.5-17.4-8.6-48.7-8.6-48.7L372.2,278.5z"/>
		<path fill="#AA3030" d="M210.1,117.2c0,0-19.9,22.9-19.5,22.8c0.4-0.1,6.8,21.7,6.8,21.7l3.8,2.5l8.1-14.1l3.3-22.4L210.1,117.2z"
			/>
	</g>
	<g id="Shape_11_copy_4_">
		<path fill="#F4F4F4" d="M252.3,223.9c7.2,0,12.8-1.9,16.9-5.6c4.1-3.8,6.1-8.9,6.1-15.6v-39.9c0-5.9-2.1-10.7-6.2-14.4
			c-4.2-3.7-9.6-5.6-16.1-5.6c-7.2,0-12.9,1.8-17.1,5.3c-4.3,3.5-6.4,8.3-6.4,14.3v40.1c0,6.6,2.1,11.8,6.2,15.7
			C239.9,222,245.4,223.9,252.3,223.9z M245.8,161.8c0-1.7,0.6-3.1,1.8-4.1c1.2-1,2.8-1.6,4.7-1.6c2.1,0,3.8,0.5,5.1,1.6
			c1.3,1,1.9,2.4,1.9,4.1v42.1c0,2.1-0.6,3.7-1.9,4.9c-1.3,1.2-3,1.8-5.1,1.8c-2.1,0-3.7-0.6-4.8-1.7c-1.1-1.2-1.7-2.8-1.7-4.9
			V161.8z M299.2,223.1c3,0,6-0.8,9.2-2.5c3.2-1.6,6.2-4.1,9.1-7.2v8.5h15.8v-77.3h-15.8v58.7c-1.5,1.7-3.1,3.1-4.9,4.2
			c-1.8,1.1-3.3,1.6-4.4,1.6c-1.5,0-2.6-0.4-3.2-1.2c-0.7-0.8-1-2.1-1-4v-59.3h-15.8v64.6c0,4.6,0.9,8.1,2.8,10.4
			C292.8,222,295.6,223.1,299.2,223.1z M189.7,222h17.8v-43.5l20.7-61.3h-18.1l-11,41.9H198l-11.5-41.9h-17.9l21.2,63.3V222z
			 M360.2,239.7H144.4c-19.4,0-35.2,15.8-35.2,35.2v65.9c0,19.3,15.8,35.2,35.2,35.2h215.8c19.4,0,35.2-15.8,35.2-35.2v-65.9
			C395.4,255.6,379.5,239.7,360.2,239.7z M202.3,274.1h-16.4v81.3h-15.8v-81.3h-16.4v-13.8h48.5L202.3,274.1L202.3,274.1z
			 M248.5,355.4h-14v-7.7c-2.6,2.9-5.3,5-8.1,6.5c-2.8,1.5-5.5,2.2-8.1,2.2c-3.3,0-5.7-1-7.3-3.1c-1.6-2.1-2.5-5.2-2.5-9.4v-58.7h14
			v53.8c0,1.7,0.3,2.9,0.9,3.6c0.6,0.8,1.5,1.1,2.9,1.1c1,0,2.3-0.5,3.9-1.5c1.6-1,3-2.2,4.4-3.7v-53.3h14V355.4z M299.4,340.9
			c0,5-1.1,8.8-3.3,11.4c-2.2,2.6-5.4,4-9.5,4c-2.8,0-5.2-0.5-7.3-1.5c-2.2-1-4.2-2.6-6-4.7v5.4h-14.2v-95.1h14.2v30.6
			c1.9-2.1,3.9-3.8,6-4.9c2.1-1.1,4.3-1.7,6.5-1.7c4.4,0,7.8,1.5,10.2,4.5c2.4,3,3.5,7.4,3.5,13.1
			C299.4,302,299.4,340.9,299.4,340.9z M348.1,322h-26.8v13.2c0,3.7,0.4,6.3,1.4,7.7c0.9,1.4,2.5,2.1,4.8,2.1c2.3,0,3.9-0.6,4.9-1.8
			c0.9-1.2,1.4-3.9,1.4-8V332h14.4v3.6c0,7.2-1.7,12.6-5.3,16.3c-3.5,3.6-8.7,5.4-15.7,5.4c-6.3,0-11.2-1.9-14.8-5.8
			c-3.6-3.8-5.4-9.2-5.4-15.9v-31.5c0-6.1,2-11,6-14.9c4-3.8,9.1-5.7,15.4-5.7c6.4,0,11.4,1.8,14.8,5.3c3.5,3.5,5.2,8.6,5.2,15.3
			C348.1,304.1,348.1,322,348.1,322z M279.1,295.5c-1,0-2,0.2-3,0.7c-1,0.4-1.9,1.2-2.9,2.1v43.7c1.1,1.1,2.3,2,3.3,2.5
			c1.1,0.5,2.2,0.8,3.4,0.8c1.7,0,3-0.5,3.8-1.5c0.8-1,1.2-2.6,1.2-4.8v-36.2c0-2.4-0.5-4.2-1.5-5.4
			C282.5,296.1,281,295.5,279.1,295.5z M327.5,295.8c-2.2,0-3.8,0.6-4.8,1.9c-1,1.2-1.4,3.4-1.4,6.3v7.1h12.4V304
			c0-2.9-0.5-5.1-1.5-6.3C331.2,296.4,329.7,295.8,327.5,295.8z"/>
	</g>
</g>
</svg>
