<?xml version="1.0" encoding="utf-8"?>
<!-- Generator: Adobe Illustrator 18.1.0, SVG Export Plug-In . SVG Version: 6.00 Build 0)  -->
<svg version="1.1" xmlns="http://www.w3.org/2000/svg" xmlns:xlink="http://www.w3.org/1999/xlink" x="0px" y="0px"
	 viewBox="0 0 204 206" enable-background="new 0 0 204 206" xml:space="preserve">
<g id="Layer_2">
	<circle opacity="0.75" fill="#3A3A3A" cx="104" cy="106" r="100"/>
	<circle fill="#A3C63A" cx="101" cy="103" r="100"/>
</g>
<g id="Layer_1">
	<g>
		<g id="android-os-icon_2_">
			<path fill="#FFFFFF" d="M41.8,74.6c-5.5,0-9.9,4.4-9.9,9.9v41.6c0,5.5,4.4,9.9,9.9,9.9s9.9-4.4,9.9-9.9V84.6
				C51.8,79.1,47.3,74.6,41.8,74.6L41.8,74.6z M128.8,24.6c0.4-0.7,0.1-1.5-0.5-1.9c-0.7-0.4-1.5-0.1-1.9,0.5l-7,12.8
				c-12.3-5.5-26.7-5.4-38.9,0l-7-12.7c-0.4-0.7-1.2-0.9-1.9-0.5c-0.7,0.4-0.9,1.2-0.5,1.9l6.9,12.6c-13.6,7-22.5,20.4-22.5,35.8
				h88.8c0-15.4-8.9-28.7-22.5-35.8L128.8,24.6z M79.6,56.8c-2.1,0-3.7-1.7-3.7-3.7s1.7-3.8,3.7-3.8c2.1,0,3.8,1.7,3.8,3.8
				C83.4,55.1,81.7,56.8,79.6,56.8L79.6,56.8z M120.4,56.8c-2.1,0-3.8-1.7-3.8-3.8c0-2.1,1.7-3.8,3.8-3.8c2.1,0,3.7,1.7,3.7,3.8
				C124.1,55.1,122.4,56.8,120.4,56.8L120.4,56.8z M55.6,76.5V141c0,5.9,4.7,10.6,10.6,10.6h7.2v22c0,5.5,4.4,9.9,9.9,9.9
				c5.5,0,9.9-4.5,9.9-9.9v-22h13.4v22c0,5.5,4.4,9.9,9.9,9.9c5.5,0,9.9-4.4,9.9-9.9v-22h7.2c5.9,0,10.6-4.7,10.6-10.6V76.5
				L55.6,76.5z M168.1,84.5c0-5.5-4.4-9.9-9.9-9.9c-5.5,0-9.9,4.4-9.9,9.9v41.6c0,5.5,4.4,9.9,9.9,9.9c5.5,0,9.9-4.4,9.9-9.9
				L168.1,84.5z"/>
		</g>
	</g>
</g>
</svg>
