<?xml version="1.0" encoding="utf-8"?>
<!-- Generator: Adobe Illustrator 18.1.0, SVG Export Plug-In . SVG Version: 6.00 Build 0)  -->
<svg version="1.1" id="Layer_1" xmlns:dc="http://purl.org/dc/elements/1.1/" xmlns:xl="http://www.w3.org/1999/xlink"
	 xmlns="http://www.w3.org/2000/svg" xmlns:xlink="http://www.w3.org/1999/xlink" x="0px" y="0px" viewBox="-205 201 200 392"
	 enable-background="new -205 201 200 392" xml:space="preserve">
<g>
	<title>UX Kits Mobile Devices</title>
	<g>
		<title>Devices</title>
		<path fill="#F4B459" d="M-105.1,262.4l0.2,34.6h-0.2V262.4z M-6.9,251.6c0-13.3,0-24.4,0-27.9c0-10.8-1.1-15.9-27-18.7
			c-24.7-2.7-67.2-3.3-71.1-3.4l0,0v0c0,0-45,0.6-70.9,3.4c-25.9,2.8-27,7.9-27,18.7c0,5.7,0,31.4,0,54.2c-0.1-0.1-0.3-0.1-0.5-0.1
			h-0.3c-0.6,0-1,0.4-1,1v59.6c0,0.6,0.4,1,1,1h0.3c0.2,0,0.4,0,0.5-0.1V478v1.6c0,11.6,0,80.8,0,90.6c0,10.8,1.1,15.9,27,18.7
			c25.9,2.8,70.9,3.4,70.9,3.4l0,0c0,0,45.2-0.5,71.1-3.3c25.9-2.8,27-7.9,27-18.7c0-9.9,0-79.3,0-90.7l0,0v-1.6V316v-19l0,0
			c0-6.1,0-13.1,0-20.4c0.1,0.1,0.3,0.1,0.5,0.1h0.3c0.6,0,1-0.4,1-1v-23.2c0-0.6-0.4-1-1-1h-0.3C-6.7,251.5-6.8,251.6-6.9,251.6
			L-6.9,251.6z"/>
		<path fill="#FFFFFF" d="M-190.8,235.7h171.6c1.7,0,3,1.3,3,3v309.1c0,1.7-1.3,3-3,3h-171.6c-1.7,0-3-1.3-3-3V238.7
			C-193.8,237-192.4,235.7-190.8,235.7z"/>
		<circle fill="#C4C3C7" cx="-105" cy="221.4" r="4.3"/>
		<circle fill="#C4C3C7" cx="-170.6" cy="221.4" r="2.1"/>
	</g>
</g>
</svg>
